<?xml version="1.0" encoding="UTF-8"?>
<!DOCTYPE svg PUBLIC "-//W3C//DTD SVG 1.1//EN" "http://www.w3.org/Graphics/SVG/1.1/DTD/svg11.dtd">
<svg xmlns="http://www.w3.org/2000/svg" xmlns:xlink="http://www.w3.org/1999/xlink" version="1.1" width="230px" height="150px" viewBox="-0.5 -0.5 230 150"><defs><style type="text/css">@media (prefers-color-scheme: dark) {svg { filter: invert(100%) hue-rotate(180deg); }&#xa;image { filter: invert(100%) hue-rotate(180deg) }&#xa;	svg[style^="background-color: rgb(255, 255, 255);"] {		background-color: #121212 !important;	}}</style></defs><g><rect x="0" y="0" width="230" height="150" fill="none" stroke="none" pointer-events="all"/><ellipse cx="190" cy="20" rx="15" ry="15" fill="none" stroke="rgb(0, 0, 0)" stroke-width="3" pointer-events="all"/><path d="M 181.36 27.5 L 187.08 14.16 L 192.14 21.94 L 198.76 12.29 L 192.89 26.57 L 187.83 19.99 Z" fill="rgb(0, 0, 0)" stroke="none" pointer-events="all"/><path d="M 123 74 Q 149.52 74.52 149.52 47.26 Q 149.52 20 164.76 20" fill="none" stroke="rgb(0, 0, 0)" stroke-width="2" stroke-miterlimit="10" pointer-events="stroke"/><path d="M 172.76 20 L 164.76 24 L 164.76 16 Z" fill="none" stroke="rgb(0, 0, 0)" stroke-width="2" stroke-miterlimit="10" pointer-events="all"/><path d="M 44 74 Q 70.52 74.52 70.52 47.26 Q 70.52 20 85.76 20" fill="none" stroke="rgb(0, 0, 0)" stroke-width="2" stroke-miterlimit="10" pointer-events="stroke"/><path d="M 93.76 20 L 85.76 24 L 85.76 16 Z" fill="none" stroke="rgb(0, 0, 0)" stroke-width="2" stroke-miterlimit="10" pointer-events="all"/><ellipse cx="111" cy="20" rx="15" ry="15" fill="none" stroke="rgb(0, 0, 0)" stroke-width="3" pointer-events="all"/><path d="M 102.36 27.5 L 108.08 14.16 L 113.14 21.94 L 119.76 12.29 L 113.89 26.57 L 108.83 19.99 Z" fill="rgb(0, 0, 0)" stroke="none" pointer-events="all"/><ellipse cx="148" cy="130.52" rx="15" ry="15" fill="none" stroke="rgb(0, 0, 0)" stroke-width="3" pointer-events="all"/><path d="M 139.36 138.02 L 145.08 124.68 L 150.14 132.46 L 156.76 122.81 L 150.89 137.09 L 145.83 130.51 Z" fill="rgb(0, 0, 0)" stroke="none" pointer-events="all"/><path d="M 80 74 Q 107 74.52 107 102.52 Q 107 130.52 122.76 130.52" fill="none" stroke="rgb(0, 0, 0)" stroke-width="2" stroke-miterlimit="10" pointer-events="stroke"/><path d="M 130.76 130.52 L 122.76 134.52 L 122.76 126.52 Z" fill="none" stroke="rgb(0, 0, 0)" stroke-width="2" stroke-miterlimit="10" pointer-events="all"/><ellipse cx="19" cy="75" rx="15" ry="15" fill="none" stroke="rgb(0, 0, 0)" stroke-width="3" transform="rotate(90,19,75)" pointer-events="all"/><path d="M 183.9 74 L 34 74" fill="none" stroke="rgb(0, 0, 0)" stroke-width="3" stroke-miterlimit="10" pointer-events="stroke"/><path d="M 190.65 74 L 181.65 77 L 183.9 74 L 181.65 71 Z" fill="rgb(0, 0, 0)" stroke="rgb(0, 0, 0)" stroke-width="3" stroke-miterlimit="10" pointer-events="all"/><ellipse cx="211" cy="74" rx="15" ry="15" fill="none" stroke="rgb(0, 0, 0)" stroke-width="3" transform="rotate(90,211,74)" pointer-events="all"/><ellipse cx="211" cy="74" rx="12" ry="12" fill="#000000" stroke="none" transform="rotate(90,211,74)" pointer-events="all"/></g></svg>